<mxfile host="65bd71144e">
    <diagram id="6Elei3vszjTgESumWc6J" name="Page-1">
        <mxGraphModel dx="883" dy="319" grid="1" gridSize="10" guides="1" tooltips="1" connect="1" arrows="1" fold="1" page="1" pageScale="1" pageWidth="1920" pageHeight="1200" math="0" shadow="0">
            <root>
                <mxCell id="0"/>
                <mxCell id="1" parent="0"/>
                <mxCell id="16" style="edgeStyle=orthogonalEdgeStyle;rounded=0;orthogonalLoop=1;jettySize=auto;html=1;exitX=0.5;exitY=1;exitDx=0;exitDy=0;entryX=0;entryY=0.75;entryDx=0;entryDy=0;" parent="1" source="17" target="23" edge="1">
                    <mxGeometry relative="1" as="geometry"/>
                </mxCell>
                <mxCell id="17" value="React APP" style="swimlane;" parent="1" vertex="1">
                    <mxGeometry x="50" y="290" width="200" height="80" as="geometry"/>
                </mxCell>
                <mxCell id="18" value="POSTS Service" style="swimlane;" parent="1" vertex="1">
                    <mxGeometry x="410" y="130" width="200" height="110" as="geometry"/>
                </mxCell>
                <mxCell id="19" value="GET /posts" style="rounded=0;whiteSpace=wrap;html=1;" parent="18" vertex="1">
                    <mxGeometry y="30" width="120" height="60" as="geometry"/>
                </mxCell>
                <mxCell id="20" value="Comments Service" style="swimlane;" parent="1" vertex="1">
                    <mxGeometry x="410" y="290" width="200" height="110" as="geometry"/>
                </mxCell>
                <mxCell id="21" value="GET /comments" style="rounded=0;whiteSpace=wrap;html=1;" parent="20" vertex="1">
                    <mxGeometry y="30" width="120" height="60" as="geometry"/>
                </mxCell>
                <mxCell id="22" value="Query Service" style="swimlane;" parent="1" vertex="1">
                    <mxGeometry x="410" y="460" width="200" height="110" as="geometry"/>
                </mxCell>
                <mxCell id="23" value="GET /posts" style="rounded=0;whiteSpace=wrap;html=1;" parent="22" vertex="1">
                    <mxGeometry y="30" width="120" height="60" as="geometry"/>
                </mxCell>
                <mxCell id="24" style="edgeStyle=orthogonalEdgeStyle;rounded=0;orthogonalLoop=1;jettySize=auto;html=1;exitX=0;exitY=0.25;exitDx=0;exitDy=0;entryX=1;entryY=0.5;entryDx=0;entryDy=0;" parent="1" source="27" target="18" edge="1">
                    <mxGeometry relative="1" as="geometry"/>
                </mxCell>
                <mxCell id="25" style="edgeStyle=orthogonalEdgeStyle;rounded=0;orthogonalLoop=1;jettySize=auto;html=1;exitX=0;exitY=0.5;exitDx=0;exitDy=0;" parent="1" source="27" edge="1">
                    <mxGeometry relative="1" as="geometry">
                        <mxPoint x="610" y="350" as="targetPoint"/>
                    </mxGeometry>
                </mxCell>
                <mxCell id="26" style="edgeStyle=orthogonalEdgeStyle;rounded=0;orthogonalLoop=1;jettySize=auto;html=1;exitX=0;exitY=0.75;exitDx=0;exitDy=0;entryX=1;entryY=0.25;entryDx=0;entryDy=0;" parent="1" source="27" target="22" edge="1">
                    <mxGeometry relative="1" as="geometry"/>
                </mxCell>
                <mxCell id="27" value="Events" style="swimlane;" parent="1" vertex="1">
                    <mxGeometry x="810" y="290" width="200" height="120" as="geometry"/>
                </mxCell>
            </root>
        </mxGraphModel>
    </diagram>
    <diagram id="xaX-66Z_mqXJOVIoVy5g" name="Page-2">
        <mxGraphModel grid="1" gridSize="10" guides="1" tooltips="1" connect="1" arrows="1" page="1" fold="1" pageScale="1" pageWidth="850" pageHeight="1100" math="0" shadow="0">
            <root>
                <mxCell id="rc-YilEutRHBlLv71LU_-0"/>
                <mxCell id="rc-YilEutRHBlLv71LU_-1" parent="rc-YilEutRHBlLv71LU_-0"/>
                <mxCell id="rc-YilEutRHBlLv71LU_-8" style="edgeStyle=none;html=1;entryX=0;entryY=0.5;entryDx=0;entryDy=0;" parent="rc-YilEutRHBlLv71LU_-1" source="rc-YilEutRHBlLv71LU_-2" target="rc-YilEutRHBlLv71LU_-3" edge="1">
                    <mxGeometry relative="1" as="geometry"/>
                </mxCell>
                <mxCell id="rc-YilEutRHBlLv71LU_-2" value="User Interface" style="rounded=0;whiteSpace=wrap;html=1;" parent="rc-YilEutRHBlLv71LU_-1" vertex="1">
                    <mxGeometry x="40" y="180" width="80" height="40" as="geometry"/>
                </mxCell>
                <mxCell id="p9f1tljpS9kM_P678IX5-5" style="edgeStyle=none;html=1;entryX=0.014;entryY=0.102;entryDx=0;entryDy=0;entryPerimeter=0;" parent="rc-YilEutRHBlLv71LU_-1" source="rc-YilEutRHBlLv71LU_-3" target="p9f1tljpS9kM_P678IX5-1" edge="1">
                    <mxGeometry relative="1" as="geometry"/>
                </mxCell>
                <mxCell id="p9f1tljpS9kM_P678IX5-17" style="html=1;exitX=0.5;exitY=0;exitDx=0;exitDy=0;entryX=0;entryY=0;entryDx=0;entryDy=0;" parent="rc-YilEutRHBlLv71LU_-1" source="rc-YilEutRHBlLv71LU_-3" target="p9f1tljpS9kM_P678IX5-1" edge="1">
                    <mxGeometry relative="1" as="geometry"/>
                </mxCell>
                <mxCell id="rc-YilEutRHBlLv71LU_-3" value="Comment Service" style="rounded=0;whiteSpace=wrap;html=1;" parent="rc-YilEutRHBlLv71LU_-1" vertex="1">
                    <mxGeometry x="200" y="60" width="120" height="80" as="geometry"/>
                </mxCell>
                <mxCell id="p9f1tljpS9kM_P678IX5-10" style="edgeStyle=none;html=1;exitX=1;exitY=0.5;exitDx=0;exitDy=0;" parent="rc-YilEutRHBlLv71LU_-1" source="rc-YilEutRHBlLv71LU_-4" target="p9f1tljpS9kM_P678IX5-1" edge="1">
                    <mxGeometry relative="1" as="geometry"/>
                </mxCell>
                <mxCell id="rc-YilEutRHBlLv71LU_-4" value="Moderation Service" style="rounded=0;whiteSpace=wrap;html=1;" parent="rc-YilEutRHBlLv71LU_-1" vertex="1">
                    <mxGeometry x="200" y="200" width="120" height="60" as="geometry"/>
                </mxCell>
                <mxCell id="rc-YilEutRHBlLv71LU_-5" value="Query Service" style="rounded=0;whiteSpace=wrap;html=1;" parent="rc-YilEutRHBlLv71LU_-1" vertex="1">
                    <mxGeometry x="200" y="320" width="120" height="60" as="geometry"/>
                </mxCell>
                <mxCell id="p9f1tljpS9kM_P678IX5-0" value="send a comment with status" style="text;html=1;align=center;verticalAlign=middle;resizable=0;points=[];autosize=1;strokeColor=none;fillColor=none;" parent="rc-YilEutRHBlLv71LU_-1" vertex="1">
                    <mxGeometry x="30" y="140" width="160" height="20" as="geometry"/>
                </mxCell>
                <mxCell id="p9f1tljpS9kM_P678IX5-6" style="edgeStyle=none;html=1;exitX=0;exitY=0.25;exitDx=0;exitDy=0;entryX=1;entryY=0.25;entryDx=0;entryDy=0;" parent="rc-YilEutRHBlLv71LU_-1" source="p9f1tljpS9kM_P678IX5-1" target="rc-YilEutRHBlLv71LU_-4" edge="1">
                    <mxGeometry relative="1" as="geometry"/>
                </mxCell>
                <mxCell id="p9f1tljpS9kM_P678IX5-7" style="edgeStyle=none;html=1;exitX=0;exitY=0.5;exitDx=0;exitDy=0;entryX=1;entryY=0.25;entryDx=0;entryDy=0;" parent="rc-YilEutRHBlLv71LU_-1" source="p9f1tljpS9kM_P678IX5-1" target="rc-YilEutRHBlLv71LU_-5" edge="1">
                    <mxGeometry relative="1" as="geometry"/>
                </mxCell>
                <mxCell id="p9f1tljpS9kM_P678IX5-12" style="edgeStyle=none;html=1;exitX=0;exitY=0.25;exitDx=0;exitDy=0;entryX=1;entryY=0.75;entryDx=0;entryDy=0;" parent="rc-YilEutRHBlLv71LU_-1" source="p9f1tljpS9kM_P678IX5-1" target="rc-YilEutRHBlLv71LU_-3" edge="1">
                    <mxGeometry relative="1" as="geometry"/>
                </mxCell>
                <mxCell id="p9f1tljpS9kM_P678IX5-19" style="edgeStyle=none;html=1;exitX=0;exitY=0.75;exitDx=0;exitDy=0;entryX=1;entryY=0.75;entryDx=0;entryDy=0;" parent="rc-YilEutRHBlLv71LU_-1" source="p9f1tljpS9kM_P678IX5-1" target="rc-YilEutRHBlLv71LU_-5" edge="1">
                    <mxGeometry relative="1" as="geometry"/>
                </mxCell>
                <mxCell id="p9f1tljpS9kM_P678IX5-1" value="Envent Bus" style="rounded=0;whiteSpace=wrap;html=1;" parent="rc-YilEutRHBlLv71LU_-1" vertex="1">
                    <mxGeometry x="510" y="40" width="120" height="340" as="geometry"/>
                </mxCell>
                <mxCell id="p9f1tljpS9kM_P678IX5-3" value="comment Created Event" style="text;html=1;align=center;verticalAlign=middle;resizable=0;points=[];autosize=1;strokeColor=none;fillColor=none;" parent="rc-YilEutRHBlLv71LU_-1" vertex="1">
                    <mxGeometry x="320" y="60" width="140" height="20" as="geometry"/>
                </mxCell>
                <mxCell id="p9f1tljpS9kM_P678IX5-8" value="comment Created Event" style="text;html=1;align=center;verticalAlign=middle;resizable=0;points=[];autosize=1;strokeColor=none;fillColor=none;" parent="rc-YilEutRHBlLv71LU_-1" vertex="1">
                    <mxGeometry x="340" y="180" width="140" height="20" as="geometry"/>
                </mxCell>
                <mxCell id="p9f1tljpS9kM_P678IX5-9" value="comment Created Event" style="text;html=1;align=center;verticalAlign=middle;resizable=0;points=[];autosize=1;strokeColor=none;fillColor=none;" parent="rc-YilEutRHBlLv71LU_-1" vertex="1">
                    <mxGeometry x="330" y="280" width="140" height="20" as="geometry"/>
                </mxCell>
                <mxCell id="p9f1tljpS9kM_P678IX5-11" value="cmnt moderated" style="text;html=1;align=center;verticalAlign=middle;resizable=0;points=[];autosize=1;strokeColor=none;fillColor=none;" parent="rc-YilEutRHBlLv71LU_-1" vertex="1">
                    <mxGeometry x="340" y="230" width="100" height="20" as="geometry"/>
                </mxCell>
                <mxCell id="p9f1tljpS9kM_P678IX5-13" value="cmnt moderated" style="text;html=1;align=center;verticalAlign=middle;resizable=0;points=[];autosize=1;strokeColor=none;fillColor=none;" parent="rc-YilEutRHBlLv71LU_-1" vertex="1">
                    <mxGeometry x="340" y="120" width="100" height="20" as="geometry"/>
                </mxCell>
                <mxCell id="p9f1tljpS9kM_P678IX5-18" value="cmnt updated" style="text;html=1;align=center;verticalAlign=middle;resizable=0;points=[];autosize=1;strokeColor=none;fillColor=none;" parent="rc-YilEutRHBlLv71LU_-1" vertex="1">
                    <mxGeometry x="340" y="30" width="90" height="20" as="geometry"/>
                </mxCell>
                <mxCell id="p9f1tljpS9kM_P678IX5-20" value="cmnt updated" style="text;html=1;align=center;verticalAlign=middle;resizable=0;points=[];autosize=1;strokeColor=none;fillColor=none;" parent="rc-YilEutRHBlLv71LU_-1" vertex="1">
                    <mxGeometry x="370" y="340" width="90" height="20" as="geometry"/>
                </mxCell>
                <mxCell id="EcwSh0ACPWgu-hWopRbw-0" value="Comment Moderation" style="text;html=1;align=center;verticalAlign=middle;resizable=0;points=[];autosize=1;strokeColor=none;fillColor=none;rotation=90;" vertex="1" parent="rc-YilEutRHBlLv71LU_-1">
                    <mxGeometry x="710" y="200" width="130" height="20" as="geometry"/>
                </mxCell>
            </root>
        </mxGraphModel>
    </diagram>
    <diagram id="Tx8IvI3s8t8_Wmbyf0eQ" name="Page-3">
        <mxGraphModel grid="1" gridSize="10" guides="1" tooltips="1" connect="1" arrows="1" page="1" fold="1" pageScale="1" pageWidth="850" pageHeight="1100" math="0" shadow="0">
            <root>
                <mxCell id="w6gRd_IYpiBb1EtE1YXe-0"/>
                <mxCell id="w6gRd_IYpiBb1EtE1YXe-1" parent="w6gRd_IYpiBb1EtE1YXe-0"/>
                <mxCell id="w6gRd_IYpiBb1EtE1YXe-2" value="IF one of the Service Goes Down" style="text;html=1;align=center;verticalAlign=middle;resizable=0;points=[];autosize=1;strokeColor=none;fillColor=none;" parent="w6gRd_IYpiBb1EtE1YXe-1" vertex="1">
                    <mxGeometry x="310" y="40" width="190" height="20" as="geometry"/>
                </mxCell>
                <mxCell id="w6gRd_IYpiBb1EtE1YXe-6" style="edgeStyle=none;html=1;exitX=0.5;exitY=1;exitDx=0;exitDy=0;" parent="w6gRd_IYpiBb1EtE1YXe-1" source="w6gRd_IYpiBb1EtE1YXe-3" edge="1">
                    <mxGeometry relative="1" as="geometry">
                        <mxPoint x="85" y="370" as="targetPoint"/>
                    </mxGeometry>
                </mxCell>
                <mxCell id="w6gRd_IYpiBb1EtE1YXe-3" value="Post" style="rounded=0;whiteSpace=wrap;html=1;" parent="w6gRd_IYpiBb1EtE1YXe-1" vertex="1">
                    <mxGeometry x="40" y="80" width="90" height="60" as="geometry"/>
                </mxCell>
                <mxCell id="w6gRd_IYpiBb1EtE1YXe-8" style="edgeStyle=none;html=1;" parent="w6gRd_IYpiBb1EtE1YXe-1" source="w6gRd_IYpiBb1EtE1YXe-4" edge="1">
                    <mxGeometry relative="1" as="geometry">
                        <mxPoint x="365" y="360" as="targetPoint"/>
                    </mxGeometry>
                </mxCell>
                <mxCell id="w6gRd_IYpiBb1EtE1YXe-4" value="Moderation" style="rounded=0;whiteSpace=wrap;html=1;" parent="w6gRd_IYpiBb1EtE1YXe-1" vertex="1">
                    <mxGeometry x="320" y="80" width="90" height="60" as="geometry"/>
                </mxCell>
                <mxCell id="w6gRd_IYpiBb1EtE1YXe-7" style="edgeStyle=none;html=1;" parent="w6gRd_IYpiBb1EtE1YXe-1" source="w6gRd_IYpiBb1EtE1YXe-5" edge="1">
                    <mxGeometry relative="1" as="geometry">
                        <mxPoint x="225" y="370" as="targetPoint"/>
                    </mxGeometry>
                </mxCell>
                <mxCell id="w6gRd_IYpiBb1EtE1YXe-5" value="Post" style="rounded=0;whiteSpace=wrap;html=1;" parent="w6gRd_IYpiBb1EtE1YXe-1" vertex="1">
                    <mxGeometry x="180" y="80" width="90" height="60" as="geometry"/>
                </mxCell>
                <mxCell id="w6gRd_IYpiBb1EtE1YXe-9" value="" style="endArrow=classic;html=1;" parent="w6gRd_IYpiBb1EtE1YXe-1" edge="1">
                    <mxGeometry width="50" height="50" relative="1" as="geometry">
                        <mxPoint x="85" y="169.5" as="sourcePoint"/>
                        <mxPoint x="365" y="169.5" as="targetPoint"/>
                    </mxGeometry>
                </mxCell>
                <mxCell id="w6gRd_IYpiBb1EtE1YXe-10" value="" style="shape=sumEllipse;perimeter=ellipsePerimeter;whiteSpace=wrap;html=1;backgroundOutline=1;" parent="w6gRd_IYpiBb1EtE1YXe-1" vertex="1">
                    <mxGeometry x="347.5" y="150" width="35" height="40" as="geometry"/>
                </mxCell>
                <mxCell id="w6gRd_IYpiBb1EtE1YXe-11" value="" style="endArrow=classic;html=1;" parent="w6gRd_IYpiBb1EtE1YXe-1" edge="1">
                    <mxGeometry width="50" height="50" relative="1" as="geometry">
                        <mxPoint x="85" y="220" as="sourcePoint"/>
                        <mxPoint x="365" y="220" as="targetPoint"/>
                    </mxGeometry>
                </mxCell>
                <mxCell id="w6gRd_IYpiBb1EtE1YXe-12" value="" style="endArrow=classic;html=1;" parent="w6gRd_IYpiBb1EtE1YXe-1" edge="1">
                    <mxGeometry width="50" height="50" relative="1" as="geometry">
                        <mxPoint x="85" y="260" as="sourcePoint"/>
                        <mxPoint x="365" y="260" as="targetPoint"/>
                    </mxGeometry>
                </mxCell>
                <mxCell id="w6gRd_IYpiBb1EtE1YXe-13" value="" style="shape=sumEllipse;perimeter=ellipsePerimeter;whiteSpace=wrap;html=1;backgroundOutline=1;" parent="w6gRd_IYpiBb1EtE1YXe-1" vertex="1">
                    <mxGeometry x="347.5" y="200" width="35" height="40" as="geometry"/>
                </mxCell>
            </root>
        </mxGraphModel>
    </diagram>
    <diagram id="FSYo5N0k2xfVCc7GM5IO" name="Page-4">
        <mxGraphModel dx="883" dy="319" grid="1" gridSize="10" guides="1" tooltips="1" connect="1" arrows="1" fold="1" page="1" pageScale="1" pageWidth="850" pageHeight="1100" math="0" shadow="0">
            <root>
                <mxCell id="uzGoDjS1cm3amzU0dm5O-0"/>
                <mxCell id="uzGoDjS1cm3amzU0dm5O-1" parent="uzGoDjS1cm3amzU0dm5O-0"/>
                <mxCell id="uzGoDjS1cm3amzU0dm5O-2" value="Event syncing" style="text;html=1;align=center;verticalAlign=middle;resizable=0;points=[];autosize=1;strokeColor=none;fillColor=none;" parent="uzGoDjS1cm3amzU0dm5O-1" vertex="1">
                    <mxGeometry x="320" y="20" width="90" height="20" as="geometry"/>
                </mxCell>
                <mxCell id="uzGoDjS1cm3amzU0dm5O-8" style="edgeStyle=none;html=1;" parent="uzGoDjS1cm3amzU0dm5O-1" source="uzGoDjS1cm3amzU0dm5O-3" edge="1">
                    <mxGeometry relative="1" as="geometry">
                        <mxPoint x="250" y="400" as="targetPoint"/>
                    </mxGeometry>
                </mxCell>
                <mxCell id="uzGoDjS1cm3amzU0dm5O-3" value="Event Bus" style="rounded=0;whiteSpace=wrap;html=1;" parent="uzGoDjS1cm3amzU0dm5O-1" vertex="1">
                    <mxGeometry x="200" y="80" width="100" height="50" as="geometry"/>
                </mxCell>
                <mxCell id="uzGoDjS1cm3amzU0dm5O-4" value="Query" style="rounded=0;whiteSpace=wrap;html=1;" parent="uzGoDjS1cm3amzU0dm5O-1" vertex="1">
                    <mxGeometry x="480" y="80" width="100" height="50" as="geometry"/>
                </mxCell>
                <mxCell id="uzGoDjS1cm3amzU0dm5O-9" style="edgeStyle=none;html=1;" parent="uzGoDjS1cm3amzU0dm5O-1" source="uzGoDjS1cm3amzU0dm5O-5" edge="1">
                    <mxGeometry relative="1" as="geometry">
                        <mxPoint x="400" y="400" as="targetPoint"/>
                    </mxGeometry>
                </mxCell>
                <mxCell id="uzGoDjS1cm3amzU0dm5O-5" value="post" style="rounded=0;whiteSpace=wrap;html=1;" parent="uzGoDjS1cm3amzU0dm5O-1" vertex="1">
                    <mxGeometry x="350" y="80" width="100" height="50" as="geometry"/>
                </mxCell>
                <mxCell id="uzGoDjS1cm3amzU0dm5O-6" value="Event Bus Data Store" style="rounded=0;whiteSpace=wrap;html=1;" parent="uzGoDjS1cm3amzU0dm5O-1" vertex="1">
                    <mxGeometry x="40" y="80" width="100" height="50" as="geometry"/>
                </mxCell>
                <mxCell id="uzGoDjS1cm3amzU0dm5O-7" value="" style="rounded=0;whiteSpace=wrap;html=1;" parent="uzGoDjS1cm3amzU0dm5O-1" vertex="1">
                    <mxGeometry x="40" y="160" width="100" height="60" as="geometry"/>
                </mxCell>
                <mxCell id="uzGoDjS1cm3amzU0dm5O-12" style="edgeStyle=none;html=1;" parent="uzGoDjS1cm3amzU0dm5O-1" source="uzGoDjS1cm3amzU0dm5O-11" edge="1">
                    <mxGeometry relative="1" as="geometry">
                        <mxPoint x="250" y="190" as="targetPoint"/>
                    </mxGeometry>
                </mxCell>
                <mxCell id="uzGoDjS1cm3amzU0dm5O-11" value="Event 1" style="rounded=1;whiteSpace=wrap;html=1;" parent="uzGoDjS1cm3amzU0dm5O-1" vertex="1">
                    <mxGeometry x="330" y="170" width="70" height="40" as="geometry"/>
                </mxCell>
                <mxCell id="uzGoDjS1cm3amzU0dm5O-13" value="Event 1" style="rounded=1;whiteSpace=wrap;html=1;" parent="uzGoDjS1cm3amzU0dm5O-1" vertex="1">
                    <mxGeometry x="70" y="170" width="70" height="40" as="geometry"/>
                </mxCell>
                <mxCell id="uzGoDjS1cm3amzU0dm5O-14" value="" style="rounded=0;whiteSpace=wrap;html=1;" parent="uzGoDjS1cm3amzU0dm5O-1" vertex="1">
                    <mxGeometry x="40" y="270" width="100" height="60" as="geometry"/>
                </mxCell>
                <mxCell id="uzGoDjS1cm3amzU0dm5O-19" style="edgeStyle=none;html=1;" parent="uzGoDjS1cm3amzU0dm5O-1" source="uzGoDjS1cm3amzU0dm5O-15" edge="1">
                    <mxGeometry relative="1" as="geometry">
                        <mxPoint x="250" y="300" as="targetPoint"/>
                    </mxGeometry>
                </mxCell>
                <mxCell id="uzGoDjS1cm3amzU0dm5O-15" value="Event 2" style="rounded=1;whiteSpace=wrap;html=1;" parent="uzGoDjS1cm3amzU0dm5O-1" vertex="1">
                    <mxGeometry x="330" y="280" width="70" height="40" as="geometry"/>
                </mxCell>
                <mxCell id="uzGoDjS1cm3amzU0dm5O-16" value="" style="endArrow=classic;html=1;" parent="uzGoDjS1cm3amzU0dm5O-1" edge="1">
                    <mxGeometry width="50" height="50" relative="1" as="geometry">
                        <mxPoint x="560" y="280" as="sourcePoint"/>
                        <mxPoint x="560" y="400" as="targetPoint"/>
                    </mxGeometry>
                </mxCell>
                <mxCell id="uzGoDjS1cm3amzU0dm5O-17" value="Event 1" style="rounded=1;whiteSpace=wrap;html=1;" parent="uzGoDjS1cm3amzU0dm5O-1" vertex="1">
                    <mxGeometry x="70" y="280" width="70" height="20" as="geometry"/>
                </mxCell>
                <mxCell id="uzGoDjS1cm3amzU0dm5O-18" value="Event 2" style="rounded=1;whiteSpace=wrap;html=1;" parent="uzGoDjS1cm3amzU0dm5O-1" vertex="1">
                    <mxGeometry x="70" y="300" width="70" height="20" as="geometry"/>
                </mxCell>
            </root>
        </mxGraphModel>
    </diagram>
    <diagram id="1qa75c9WO6c9yOp24__X" name="Page-5">
        <mxGraphModel dx="883" dy="319" grid="1" gridSize="10" guides="1" tooltips="1" connect="1" arrows="1" fold="1" page="1" pageScale="1" pageWidth="850" pageHeight="1100" math="0" shadow="0">
            <root>
                <mxCell id="QUQZwyCqGUwjV7c-tGkx-0"/>
                <mxCell id="QUQZwyCqGUwjV7c-tGkx-1" parent="QUQZwyCqGUwjV7c-tGkx-0"/>
                <mxCell id="QUQZwyCqGUwjV7c-tGkx-2" value="" style="whiteSpace=wrap;html=1;aspect=fixed;" parent="QUQZwyCqGUwjV7c-tGkx-1" vertex="1">
                    <mxGeometry x="40" y="80" width="160" height="160" as="geometry"/>
                </mxCell>
                <mxCell id="QUQZwyCqGUwjV7c-tGkx-3" value="Pod&lt;br&gt;&lt;br&gt;Container running Posts Image" style="rounded=0;whiteSpace=wrap;html=1;" parent="QUQZwyCqGUwjV7c-tGkx-1" vertex="1">
                    <mxGeometry x="60" y="130" width="120" height="60" as="geometry"/>
                </mxCell>
                <mxCell id="QUQZwyCqGUwjV7c-tGkx-5" value="" style="whiteSpace=wrap;html=1;aspect=fixed;" parent="QUQZwyCqGUwjV7c-tGkx-1" vertex="1">
                    <mxGeometry x="440" y="80" width="160" height="160" as="geometry"/>
                </mxCell>
                <mxCell id="QUQZwyCqGUwjV7c-tGkx-6" value="" style="whiteSpace=wrap;html=1;aspect=fixed;" parent="QUQZwyCqGUwjV7c-tGkx-1" vertex="1">
                    <mxGeometry x="240" y="80" width="160" height="160" as="geometry"/>
                </mxCell>
                <mxCell id="QUQZwyCqGUwjV7c-tGkx-7" value="Pod&lt;br&gt;&lt;br&gt;Container running Posts Image" style="rounded=0;whiteSpace=wrap;html=1;" parent="QUQZwyCqGUwjV7c-tGkx-1" vertex="1">
                    <mxGeometry x="260" y="130" width="120" height="60" as="geometry"/>
                </mxCell>
                <mxCell id="QUQZwyCqGUwjV7c-tGkx-8" value="Pod&lt;br&gt;&lt;br&gt;Container running Posts Image" style="rounded=0;whiteSpace=wrap;html=1;" parent="QUQZwyCqGUwjV7c-tGkx-1" vertex="1">
                    <mxGeometry x="460" y="130" width="120" height="60" as="geometry"/>
                </mxCell>
                <mxCell id="QUQZwyCqGUwjV7c-tGkx-9" value="Service as Cluster IP" style="rounded=1;whiteSpace=wrap;html=1;" parent="QUQZwyCqGUwjV7c-tGkx-1" vertex="1">
                    <mxGeometry x="60" y="200" width="520" height="30" as="geometry"/>
                </mxCell>
                <mxCell id="QUQZwyCqGUwjV7c-tGkx-12" style="edgeStyle=none;html=1;exitX=1;exitY=0.5;exitDx=0;exitDy=0;entryX=0;entryY=0.5;entryDx=0;entryDy=0;" parent="QUQZwyCqGUwjV7c-tGkx-1" source="QUQZwyCqGUwjV7c-tGkx-10" target="QUQZwyCqGUwjV7c-tGkx-11" edge="1">
                    <mxGeometry relative="1" as="geometry"/>
                </mxCell>
                <mxCell id="QUQZwyCqGUwjV7c-tGkx-10" value="Cluster IP" style="rounded=0;whiteSpace=wrap;html=1;" parent="QUQZwyCqGUwjV7c-tGkx-1" vertex="1">
                    <mxGeometry x="400" y="280" width="120" height="60" as="geometry"/>
                </mxCell>
                <mxCell id="QUQZwyCqGUwjV7c-tGkx-11" value="Sets up an easy to remember URL to access pod." style="rounded=1;whiteSpace=wrap;html=1;" parent="QUQZwyCqGUwjV7c-tGkx-1" vertex="1">
                    <mxGeometry x="600" y="280" width="120" height="60" as="geometry"/>
                </mxCell>
                <mxCell id="QUQZwyCqGUwjV7c-tGkx-13" style="edgeStyle=none;html=1;exitX=1;exitY=0.5;exitDx=0;exitDy=0;entryX=0;entryY=0.5;entryDx=0;entryDy=0;" parent="QUQZwyCqGUwjV7c-tGkx-1" source="QUQZwyCqGUwjV7c-tGkx-14" edge="1">
                    <mxGeometry relative="1" as="geometry">
                        <mxPoint x="600" y="520" as="targetPoint"/>
                    </mxGeometry>
                </mxCell>
                <mxCell id="QUQZwyCqGUwjV7c-tGkx-14" value="Load Balancer" style="rounded=0;whiteSpace=wrap;html=1;" parent="QUQZwyCqGUwjV7c-tGkx-1" vertex="1">
                    <mxGeometry x="400" y="490" width="120" height="60" as="geometry"/>
                </mxCell>
                <mxCell id="QUQZwyCqGUwjV7c-tGkx-15" value="Makes a pod accessible from outside the cluster.&lt;br&gt;This is the right way to expose a pod to the outside world." style="rounded=1;whiteSpace=wrap;html=1;" parent="QUQZwyCqGUwjV7c-tGkx-1" vertex="1">
                    <mxGeometry x="600" y="460" width="120" height="120" as="geometry"/>
                </mxCell>
                <mxCell id="QUQZwyCqGUwjV7c-tGkx-16" style="edgeStyle=none;html=1;exitX=1;exitY=0.5;exitDx=0;exitDy=0;entryX=0;entryY=0.5;entryDx=0;entryDy=0;" parent="QUQZwyCqGUwjV7c-tGkx-1" source="QUQZwyCqGUwjV7c-tGkx-17" target="QUQZwyCqGUwjV7c-tGkx-18" edge="1">
                    <mxGeometry relative="1" as="geometry"/>
                </mxCell>
                <mxCell id="QUQZwyCqGUwjV7c-tGkx-17" value="Node PORT" style="rounded=0;whiteSpace=wrap;html=1;" parent="QUQZwyCqGUwjV7c-tGkx-1" vertex="1">
                    <mxGeometry x="400" y="370" width="120" height="60" as="geometry"/>
                </mxCell>
                <mxCell id="QUQZwyCqGUwjV7c-tGkx-18" value="Makes a pod accessible from outside the cluster.&lt;br&gt;Only available in dev purposes&amp;nbsp;" style="rounded=1;whiteSpace=wrap;html=1;" parent="QUQZwyCqGUwjV7c-tGkx-1" vertex="1">
                    <mxGeometry x="600" y="360" width="120" height="80" as="geometry"/>
                </mxCell>
                <mxCell id="QUQZwyCqGUwjV7c-tGkx-19" style="edgeStyle=none;html=1;exitX=1;exitY=0.5;exitDx=0;exitDy=0;entryX=0;entryY=0.5;entryDx=0;entryDy=0;" parent="QUQZwyCqGUwjV7c-tGkx-1" source="QUQZwyCqGUwjV7c-tGkx-20" target="QUQZwyCqGUwjV7c-tGkx-21" edge="1">
                    <mxGeometry relative="1" as="geometry"/>
                </mxCell>
                <mxCell id="QUQZwyCqGUwjV7c-tGkx-20" value="External Name" style="rounded=0;whiteSpace=wrap;html=1;" parent="QUQZwyCqGUwjV7c-tGkx-1" vertex="1">
                    <mxGeometry x="400" y="620" width="120" height="60" as="geometry"/>
                </mxCell>
                <mxCell id="QUQZwyCqGUwjV7c-tGkx-21" value="Redirects an in-cluster request to a CNAME url." style="rounded=1;whiteSpace=wrap;html=1;" parent="QUQZwyCqGUwjV7c-tGkx-1" vertex="1">
                    <mxGeometry x="600" y="590" width="120" height="120" as="geometry"/>
                </mxCell>
                <mxCell id="QUQZwyCqGUwjV7c-tGkx-22" value="" style="whiteSpace=wrap;html=1;aspect=fixed;" parent="QUQZwyCqGUwjV7c-tGkx-1" vertex="1">
                    <mxGeometry x="80" y="840" width="240" height="240" as="geometry"/>
                </mxCell>
                <mxCell id="QUQZwyCqGUwjV7c-tGkx-23" value="Pod&lt;br&gt;Container Running Posts Image" style="rounded=0;whiteSpace=wrap;html=1;" parent="QUQZwyCqGUwjV7c-tGkx-1" vertex="1">
                    <mxGeometry x="80" y="930" width="120" height="60" as="geometry"/>
                </mxCell>
                <mxCell id="QUQZwyCqGUwjV7c-tGkx-24" value="Pod&lt;br&gt;Container Running Posts Image" style="rounded=0;whiteSpace=wrap;html=1;" parent="QUQZwyCqGUwjV7c-tGkx-1" vertex="1">
                    <mxGeometry x="200" y="930" width="120" height="60" as="geometry"/>
                </mxCell>
                <mxCell id="QUQZwyCqGUwjV7c-tGkx-30" style="edgeStyle=orthogonalEdgeStyle;html=1;exitX=0;exitY=0.75;exitDx=0;exitDy=0;rounded=0;" parent="QUQZwyCqGUwjV7c-tGkx-1" source="QUQZwyCqGUwjV7c-tGkx-25" target="QUQZwyCqGUwjV7c-tGkx-23" edge="1">
                    <mxGeometry relative="1" as="geometry"/>
                </mxCell>
                <mxCell id="QUQZwyCqGUwjV7c-tGkx-31" style="edgeStyle=orthogonalEdgeStyle;html=1;exitX=1;exitY=0.75;exitDx=0;exitDy=0;entryX=0.75;entryY=0;entryDx=0;entryDy=0;rounded=0;" parent="QUQZwyCqGUwjV7c-tGkx-1" source="QUQZwyCqGUwjV7c-tGkx-25" target="QUQZwyCqGUwjV7c-tGkx-24" edge="1">
                    <mxGeometry relative="1" as="geometry"/>
                </mxCell>
                <mxCell id="QUQZwyCqGUwjV7c-tGkx-25" value="Service Load Balancer" style="rounded=0;whiteSpace=wrap;html=1;" parent="QUQZwyCqGUwjV7c-tGkx-1" vertex="1">
                    <mxGeometry x="90" y="860" width="220" height="40" as="geometry"/>
                </mxCell>
                <mxCell id="QUQZwyCqGUwjV7c-tGkx-35" style="edgeStyle=orthogonalEdgeStyle;html=1;exitX=0;exitY=0.5;exitDx=0;exitDy=0;entryX=0.25;entryY=0;entryDx=0;entryDy=0;rounded=0;" parent="QUQZwyCqGUwjV7c-tGkx-1" source="QUQZwyCqGUwjV7c-tGkx-32" target="QUQZwyCqGUwjV7c-tGkx-25" edge="1">
                    <mxGeometry relative="1" as="geometry"/>
                </mxCell>
                <mxCell id="QUQZwyCqGUwjV7c-tGkx-36" style="edgeStyle=orthogonalEdgeStyle;html=1;exitX=1;exitY=0.5;exitDx=0;exitDy=0;entryX=0.75;entryY=0;entryDx=0;entryDy=0;rounded=0;" parent="QUQZwyCqGUwjV7c-tGkx-1" source="QUQZwyCqGUwjV7c-tGkx-32" target="QUQZwyCqGUwjV7c-tGkx-25" edge="1">
                    <mxGeometry relative="1" as="geometry"/>
                </mxCell>
                <mxCell id="QUQZwyCqGUwjV7c-tGkx-32" value="Request" style="rounded=0;whiteSpace=wrap;html=1;" parent="QUQZwyCqGUwjV7c-tGkx-1" vertex="1">
                    <mxGeometry x="140" y="750" width="120" height="60" as="geometry"/>
                </mxCell>
            </root>
        </mxGraphModel>
    </diagram>
</mxfile>